<?xml version="1.0" encoding="UTF-8" standalone="no"?>
<!-- Created with Inkscape (http://www.inkscape.org/) -->

<svg
   xmlns:dc="http://purl.org/dc/elements/1.1/"
   xmlns:cc="http://creativecommons.org/ns#"
   xmlns:rdf="http://www.w3.org/1999/02/22-rdf-syntax-ns#"
   xmlns:svg="http://www.w3.org/2000/svg"
   xmlns="http://www.w3.org/2000/svg"
   xmlns:sodipodi="http://sodipodi.sourceforge.net/DTD/sodipodi-0.dtd"
   xmlns:inkscape="http://www.inkscape.org/namespaces/inkscape"
   width="64"
   height="64"
   viewBox="0 0 64.000001 64.000001"
   id="svg2"
   version="1.1"
   inkscape:version="0.91 r13725"
   sodipodi:docname="karadoc.svg">
  <defs
     id="defs4" />
  <sodipodi:namedview
     id="base"
     pagecolor="#ffffff"
     bordercolor="#666666"
     borderopacity="1.0"
     inkscape:pageopacity="0.0"
     inkscape:pageshadow="2"
     inkscape:zoom="4"
     inkscape:cx="117.28888"
     inkscape:cy="-19.33021"
     inkscape:document-units="px"
     inkscape:current-layer="layer1"
     showgrid="true"
     units="px"
     inkscape:window-width="1680"
     inkscape:window-height="998"
     inkscape:window-x="-8"
     inkscape:window-y="-8"
     inkscape:window-maximized="1">
    <inkscape:grid
       type="xygrid"
       id="grid4709"
       empspacing="4" />
  </sodipodi:namedview>
  <metadata
     id="metadata7">
    <rdf:RDF>
      <cc:Work
         rdf:about="">
        <dc:format>image/svg+xml</dc:format>
        <dc:type
           rdf:resource="http://purl.org/dc/dcmitype/StillImage" />
        <dc:title></dc:title>
      </cc:Work>
    </rdf:RDF>
  </metadata>
  <g
     inkscape:label="Layer 1"
     inkscape:groupmode="layer"
     id="layer1"
     transform="translate(0,-988.36216)">
    <path
       style="opacity:1;fill:#e6e6e6;fill-opacity:0.65506329;stroke:#000000;stroke-width:1;stroke-linecap:round;stroke-linejoin:round;stroke-miterlimit:4;stroke-dasharray:none;stroke-dashoffset:0;stroke-opacity:1"
       d="m 154.10325,1041.813 13.18387,2.4921 1.40529,3.5934 -14.83916,0 z"
       id="rect4761-2-5"
       inkscape:connector-curvature="0"
       sodipodi:nodetypes="ccccc"
       inkscape:transform-center-x="-4.1735261"
       inkscape:transform-center-y="1.5074373"
       inkscape:export-xdpi="92.059898"
       inkscape:export-ydpi="92.059898" />
    <path
       style="fill:#ececec;fill-opacity:1;fill-rule:evenodd;stroke:#000000;stroke-width:1px;stroke-linecap:butt;stroke-linejoin:miter;stroke-opacity:1"
       d="m 150.96056,1019.1087 -7.35734,5.7559 7.90612,8.013 1.38442,11.4634 10.6085,-0.8921 -2.33638,-14.1469 z"
       id="path4711-7-6-2"
       inkscape:connector-curvature="0"
       sodipodi:nodetypes="ccccccc"
       inkscape:transform-center-x="-3.2082342"
       inkscape:transform-center-y="7.9440262"
       inkscape:export-xdpi="92.059898"
       inkscape:export-ydpi="92.059898" />
    <path
       style="opacity:1;fill:#f2f2f2;fill-opacity:1;stroke:#000000;stroke-width:1;stroke-linecap:round;stroke-linejoin:round;stroke-miterlimit:4;stroke-dasharray:none;stroke-dashoffset:0;stroke-opacity:1"
       d="m 57.061237,989.47551 1.1839,0.318 -6.01003,19.93779 3.307526,2.9037 -4.439167,-1.2368 -4.328688,9.825 -1.856937,-0.4374 3.635429,-10.1126 -4.213734,-1.2778 4.557653,-0.8681 z"
       id="rect4779"
       inkscape:connector-curvature="0"
       sodipodi:nodetypes="ccccccccccc" />
    <path
       style="fill:#ececec;fill-opacity:1;fill-rule:evenodd;stroke:#000000;stroke-width:1px;stroke-linecap:butt;stroke-linejoin:miter;stroke-opacity:1"
       d="m 23.605916,1010.2944 -0.160179,-5.1121 6.53669,-2.6213 4.935383,4.8458 2.183698,5.4663 7.249476,1.2238 2.304619,-2.4151 4.750722,1.1299 -2.110034,6.6632 -5.815006,-1.2495 -10.555522,-0.2467 z"
       id="path4711-7-8-8"
       inkscape:connector-curvature="0"
       sodipodi:nodetypes="cccccccccccc"
       inkscape:transform-center-x="-9.180021"
       inkscape:transform-center-y="4.64832" />
    <path
       style="fill:#ececec;fill-opacity:1;fill-rule:evenodd;stroke:#000000;stroke-width:1px;stroke-linecap:butt;stroke-linejoin:miter;stroke-opacity:1"
       d="m 29.886453,1021.876 -9.250551,-2.746 -3.570392,10.2326 -10.1984943,6.9514 6.2896583,7.7582 12.263912,-9.0649 z"
       id="path4711"
       inkscape:connector-curvature="0"
       sodipodi:nodetypes="ccccccc"
       inkscape:transform-center-x="6.1027159"
       inkscape:transform-center-y="7.5038959" />
    <path
       style="fill:#ececec;fill-opacity:1;fill-rule:evenodd;stroke:#000000;stroke-width:1px;stroke-linecap:butt;stroke-linejoin:miter;stroke-opacity:1"
       d="m 30.791815,1019.0211 -7.357345,5.7559 7.906117,8.013 1.384428,11.4634 10.608499,-0.8921 -2.336388,-14.1469 z"
       id="path4711-7"
       inkscape:connector-curvature="0"
       sodipodi:nodetypes="ccccccc"
       inkscape:transform-center-x="-3.2082342"
       inkscape:transform-center-y="7.9440262" />
    <path
       style="fill:none;fill-rule:evenodd;stroke:#000000;stroke-width:1px;stroke-linecap:butt;stroke-linejoin:miter;stroke-opacity:1"
       d="m 30.314349,990.93119 c 2.760559,-1.86425 10.303857,0.83199 10.303857,0.83199 0,0 1.662105,2.12918 2.232026,3.31561 0.569399,1.18532 1.154466,3.73296 1.154466,3.73296 l -1.686376,0.2115 c 0,0 1.224889,4.30785 0.298092,5.22475 -1.738785,1.7202 -7.740252,-0.1386 -7.740252,-0.1386 l -6.560019,-4.11536 c 0,0 -0.735057,-7.21703 1.998206,-9.06285 z"
       id="path4728"
       inkscape:connector-curvature="0"
       sodipodi:nodetypes="acsccscca" />
    <path
       style="opacity:1;fill:#f2f2f2;fill-opacity:1;stroke:#000000;stroke-width:1;stroke-linecap:round;stroke-linejoin:round;stroke-miterlimit:4;stroke-dasharray:none;stroke-dashoffset:0;stroke-opacity:1"
       d="m 27.838808,999.73607 9.376202,4.15993 2.151916,5.8586 -3.996414,10.1572 2.61304,5.3384 -21.980279,1.1095 3.765851,-8.8746 0.192135,-11.8557 3.170234,-3.5014 z"
       id="rect4703"
       inkscape:connector-curvature="0"
       sodipodi:nodetypes="cccccccccc" />
    <path
       style="fill:#ececec;fill-opacity:1;fill-rule:evenodd;stroke:#000000;stroke-width:1px;stroke-linecap:butt;stroke-linejoin:miter;stroke-opacity:1"
       d="m 24.625578,1003.2794 5.542138,-1.0758 4.050839,5.3188 -4.379587,5.2627 -5.558587,2.9353 -0.0096,6.6535 3.009178,2.2872 -1.690009,3.8151 -7.066674,-0.9774 1.089354,-5.1422 -1.659217,-9.4073 z"
       id="path4711-7-8"
       inkscape:connector-curvature="0"
       sodipodi:nodetypes="cccccccccccc"
       inkscape:transform-center-x="2.601955"
       inkscape:transform-center-y="8.2341814" />
    <path
       style="opacity:1;fill:#f2f2f2;fill-opacity:0.65506329;stroke:#000000;stroke-width:1;stroke-linecap:round;stroke-linejoin:round;stroke-miterlimit:4;stroke-dasharray:none;stroke-dashoffset:0;stroke-opacity:1"
       d="m 34.684499,1044.1004 13.433869,0.1171 1.405296,3.5934 -14.839165,0 z"
       id="rect4761"
       inkscape:connector-curvature="0"
       sodipodi:nodetypes="ccccc"
       inkscape:transform-center-x="-4.1735261"
       inkscape:transform-center-y="1.5074373" />
    <path
       style="opacity:1;fill:#f2f2f2;fill-opacity:0.65506329;stroke:#000000;stroke-width:1;stroke-linecap:round;stroke-linejoin:round;stroke-miterlimit:4;stroke-dasharray:none;stroke-dashoffset:0;stroke-opacity:1"
       d="m 7.482083,1038.9011 9.755928,9.2379 -1.418185,3.5882 -10.8646119,-10.1094 z"
       id="rect4761-9"
       inkscape:connector-curvature="0"
       sodipodi:nodetypes="ccccc"
       inkscape:transform-center-x="-1.8204389"
       inkscape:transform-center-y="3.8094725" />
    <path
       style="opacity:1;fill:#f2f2f2;fill-opacity:1;stroke:#000000;stroke-width:1;stroke-linecap:round;stroke-linejoin:round;stroke-miterlimit:4;stroke-dasharray:none;stroke-dashoffset:0;stroke-opacity:1"
       d="m 122.47999,989.563 1.1839,0.318 -6.01003,19.9378 3.30752,2.9037 -4.43916,-1.2368 -4.32869,9.825 -1.85694,-0.4374 3.63543,-10.1126 -4.21373,-1.2778 4.55765,-0.8681 z"
       id="rect4779-9"
       inkscape:connector-curvature="0"
       sodipodi:nodetypes="ccccccccccc"
       inkscape:export-xdpi="90.858627"
       inkscape:export-ydpi="90.858627" />
    <path
       style="fill:#ececec;fill-opacity:1;fill-rule:evenodd;stroke:#000000;stroke-width:1px;stroke-linecap:butt;stroke-linejoin:miter;stroke-opacity:1"
       d="m 89.024666,1010.3819 -0.160179,-5.1121 6.53669,-2.6213 4.935383,4.8458 2.1837,5.4663 7.24947,1.2238 2.30462,-2.4151 4.75073,1.1299 -2.11004,6.6632 -5.815,-1.2495 -10.555527,-0.2467 z"
       id="path4711-7-8-8-2"
       inkscape:connector-curvature="0"
       sodipodi:nodetypes="cccccccccccc"
       inkscape:transform-center-x="-9.180021"
       inkscape:transform-center-y="4.64832"
       inkscape:export-xdpi="90.858627"
       inkscape:export-ydpi="90.858627" />
    <path
       style="opacity:1;fill:#e6e6e6;fill-opacity:0.65506329;stroke:#000000;stroke-width:1;stroke-linecap:round;stroke-linejoin:round;stroke-miterlimit:4;stroke-dasharray:none;stroke-dashoffset:0;stroke-opacity:1"
       d="m 75.982365,1042.0357 11.310237,2.3565 1.408939,3.5918 -14.840472,0.012 z"
       id="rect4761-9-3"
       inkscape:connector-curvature="0"
       sodipodi:nodetypes="ccccc"
       inkscape:transform-center-x="-4.3345294"
       inkscape:transform-center-y="1.1736725"
       inkscape:export-xdpi="90.858627"
       inkscape:export-ydpi="90.858627" />
    <path
       style="fill:#ececec;fill-opacity:1;fill-rule:evenodd;stroke:#000000;stroke-width:1px;stroke-linecap:butt;stroke-linejoin:miter;stroke-opacity:1"
       d="m 94.635672,1020.7604 -9.636236,-0.5061 -1.077934,10.7839 -8.289651,9.144 9.804838,3.0718 7.928425,-8.682 z"
       id="path4711-9"
       inkscape:connector-curvature="0"
       sodipodi:nodetypes="ccccccc"
       inkscape:transform-center-x="4.7644389"
       inkscape:transform-center-y="9.0694459"
       inkscape:export-xdpi="90.858627"
       inkscape:export-ydpi="90.858627" />
    <path
       style="opacity:1;fill:#e6e6e6;fill-opacity:0.65506329;stroke:#000000;stroke-width:1;stroke-linecap:round;stroke-linejoin:round;stroke-miterlimit:4;stroke-dasharray:none;stroke-dashoffset:0;stroke-opacity:1"
       d="m 99.35325,1041.8129 13.18387,2.4921 1.40529,3.5934 -14.83916,0 z"
       id="rect4761-2"
       inkscape:connector-curvature="0"
       sodipodi:nodetypes="ccccc"
       inkscape:transform-center-x="-4.1735261"
       inkscape:transform-center-y="1.5074373"
       inkscape:export-xdpi="90.858627"
       inkscape:export-ydpi="90.858627" />
    <path
       style="fill:#ececec;fill-opacity:1;fill-rule:evenodd;stroke:#000000;stroke-width:1px;stroke-linecap:butt;stroke-linejoin:miter;stroke-opacity:1"
       d="m 96.210565,1019.1086 -7.357345,5.7559 7.906117,8.013 1.384428,11.4634 10.608495,-0.8921 -2.33638,-14.1469 z"
       id="path4711-7-6"
       inkscape:connector-curvature="0"
       sodipodi:nodetypes="ccccccc"
       inkscape:transform-center-x="-3.2082342"
       inkscape:transform-center-y="7.9440262"
       inkscape:export-xdpi="90.858627"
       inkscape:export-ydpi="90.858627" />
    <path
       style="fill:#e6e6e6;fill-rule:evenodd;stroke:#000000;stroke-width:1px;stroke-linecap:butt;stroke-linejoin:miter;stroke-opacity:1"
       d="m 95.733099,991.0187 c 2.760559,-1.8643 10.303861,0.832 10.303861,0.832 0,0 1.6621,2.1292 2.23202,3.3156 0.5694,1.1853 1.15447,3.733 1.15447,3.733 l -1.68638,0.2115 c 0,0 1.22489,4.3078 0.29809,5.2247 -1.73878,1.7202 -7.74025,-0.1386 -7.74025,-0.1386 l -6.560017,-4.1154 c 0,0 -0.735057,-7.217 1.998206,-9.0628 z"
       id="path4728-1"
       inkscape:connector-curvature="0"
       sodipodi:nodetypes="acsccscca"
       inkscape:export-xdpi="90.858627"
       inkscape:export-ydpi="90.858627" />
    <path
       style="opacity:1;fill:#e6e6e6;fill-opacity:1;stroke:#000000;stroke-width:1;stroke-linecap:round;stroke-linejoin:round;stroke-miterlimit:4;stroke-dasharray:none;stroke-dashoffset:0;stroke-opacity:1"
       d="m 93.257558,999.8236 9.376202,4.1599 2.15192,5.8586 -3.99642,10.1572 3.73804,5.8384 -23.105277,0.6095 3.765851,-8.8746 0.192135,-11.8557 3.170234,-3.5014 z"
       id="rect4703-0"
       inkscape:connector-curvature="0"
       sodipodi:nodetypes="cccccccccc"
       inkscape:export-xdpi="90.858627"
       inkscape:export-ydpi="90.858627" />
    <path
       style="fill:#ececec;fill-opacity:1;fill-rule:evenodd;stroke:#000000;stroke-width:1px;stroke-linecap:butt;stroke-linejoin:miter;stroke-opacity:1"
       d="m 91.197768,1002.4307 5.629603,0.4245 2.504043,6.1991 -5.612881,3.9208 -6.136065,1.3647 -1.764666,6.4152 2.299123,3.0001 -2.636676,3.2341 -6.558422,-2.8072 2.407433,-4.6726 0.881518,-9.5118 z"
       id="path4711-7-8-7"
       inkscape:connector-curvature="0"
       sodipodi:nodetypes="cccccccccccc"
       inkscape:transform-center-x="4.9800685"
       inkscape:transform-center-y="7.5167314"
       inkscape:export-xdpi="90.858627"
       inkscape:export-ydpi="90.858627" />
    <path
       style="opacity:1;fill:#f2f2f2;fill-opacity:1;stroke:#000000;stroke-width:1;stroke-linecap:round;stroke-linejoin:round;stroke-miterlimit:4;stroke-dasharray:none;stroke-dashoffset:0;stroke-opacity:1"
       d="m 178.20351,993.55384 1.14857,0.4284 -7.86632,19.28106 3.01848,3.2032 -4.3025,-1.6506 -5.23733,9.3722 -1.80732,-0.6108 4.57433,-9.724 -4.07421,-1.6701 4.61927,-0.4337 z"
       id="rect4779-9-4"
       inkscape:connector-curvature="0"
       sodipodi:nodetypes="ccccccccccc"
       inkscape:export-xdpi="92.059898"
       inkscape:export-ydpi="92.059898" />
    <path
       style="fill:#ececec;fill-opacity:1;fill-rule:evenodd;stroke:#000000;stroke-width:1px;stroke-linecap:butt;stroke-linejoin:miter;stroke-opacity:1"
       d="m 143.23126,1009.6299 0.61994,-5.0769 6.85956,-1.5956 4.14013,5.5406 1.32607,5.735 6.97866,2.3132 2.64543,-2.036 4.52334,1.8399 -3.09985,6.2643 -5.55698,-2.1202 -10.39495,-1.8507 z"
       id="path4711-7-8-8-2-6"
       inkscape:connector-curvature="0"
       sodipodi:nodetypes="cccccccccccc"
       inkscape:transform-center-x="-8.363061"
       inkscape:transform-center-y="6.32867"
       inkscape:export-xdpi="92.059898"
       inkscape:export-ydpi="92.059898" />
    <path
       style="opacity:1;fill:#e6e6e6;fill-opacity:0.65506329;stroke:#000000;stroke-width:1;stroke-linecap:round;stroke-linejoin:round;stroke-miterlimit:4;stroke-dasharray:none;stroke-dashoffset:0;stroke-opacity:1"
       d="m 130.73237,1042.0358 11.31023,2.3565 1.40894,3.5918 -14.84047,0.012 z"
       id="rect4761-9-3-8"
       inkscape:connector-curvature="0"
       sodipodi:nodetypes="ccccc"
       inkscape:transform-center-x="-4.3345294"
       inkscape:transform-center-y="1.1736725"
       inkscape:export-xdpi="92.059898"
       inkscape:export-ydpi="92.059898" />
    <path
       style="fill:#ececec;fill-opacity:1;fill-rule:evenodd;stroke:#000000;stroke-width:1px;stroke-linecap:butt;stroke-linejoin:miter;stroke-opacity:1"
       d="m 149.38567,1020.7605 -9.63623,-0.5061 -1.07794,10.7839 -8.28965,9.144 9.80484,3.0718 7.92842,-8.682 z"
       id="path4711-9-2"
       inkscape:connector-curvature="0"
       sodipodi:nodetypes="ccccccc"
       inkscape:transform-center-x="4.7644389"
       inkscape:transform-center-y="9.0694459"
       inkscape:export-xdpi="92.059898"
       inkscape:export-ydpi="92.059898" />
    <path
       style="fill:#e6e6e6;fill-rule:evenodd;stroke:#000000;stroke-width:1px;stroke-linecap:butt;stroke-linejoin:miter;stroke-opacity:1"
       d="m 150.4831,991.0187 c 2.76056,-1.8643 10.30386,0.832 10.30386,0.832 0,0 1.6621,2.1292 2.23202,3.3156 0.5694,1.1853 1.15447,3.733 1.15447,3.733 l -1.68638,0.2115 c 0,0 1.22489,4.3079 0.29809,5.2248 -1.73878,1.7202 -7.74025,-0.1386 -7.74025,-0.1386 l -6.56002,-4.1155 c 0,0 -0.73505,-7.217 1.99821,-9.0628 z"
       id="path4728-1-5"
       inkscape:connector-curvature="0"
       sodipodi:nodetypes="acsccscca"
       inkscape:export-xdpi="92.059898"
       inkscape:export-ydpi="92.059898" />
    <path
       style="opacity:1;fill:#e6e6e6;fill-opacity:1;stroke:#000000;stroke-width:1;stroke-linecap:round;stroke-linejoin:round;stroke-miterlimit:4;stroke-dasharray:none;stroke-dashoffset:0;stroke-opacity:1"
       d="m 148.00756,999.8236 9.3762,4.16 2.15192,5.8586 -3.99642,10.1572 3.73804,5.8384 -23.10528,0.6095 3.76585,-8.8746 0.19214,-11.8557 3.17023,-3.5014 z"
       id="rect4703-0-7"
       inkscape:connector-curvature="0"
       sodipodi:nodetypes="cccccccccc"
       inkscape:export-xdpi="92.059898"
       inkscape:export-ydpi="92.059898" />
    <path
       style="fill:#ececec;fill-opacity:1;fill-rule:evenodd;stroke:#000000;stroke-width:1px;stroke-linecap:butt;stroke-linejoin:miter;stroke-opacity:1"
       d="m 143.32962,1006.4216 3.89875,-4.0832 6.38089,1.9958 -0.52867,6.8262 -2.83663,5.6096 3.84026,5.4334 3.77766,0.1252 0.82805,4.0897 -6.32997,3.2901 -2.08563,-4.8249 -6.79474,-6.7143 z"
       id="path4711-7-8-7-4"
       inkscape:connector-curvature="0"
       sodipodi:nodetypes="cccccccccccc"
       inkscape:transform-center-x="-2.1532901"
       inkscape:transform-center-y="8.8300814"
       inkscape:export-xdpi="92.059898"
       inkscape:export-ydpi="92.059898" />
    <path
       style="opacity:1;fill:#f2f2f2;fill-opacity:1;stroke:#000000;stroke-width:1;stroke-linecap:round;stroke-linejoin:round;stroke-miterlimit:4;stroke-dasharray:none;stroke-dashoffset:0;stroke-opacity:1"
       d="m 122.07634,1056.2555 1.15875,0.4 -7.39009,19.4686 3.09629,3.128 -4.34177,-1.5443 -5.0054,9.4981 -1.82179,-0.5663 4.33396,-9.8335 -4.11402,-1.5694 4.60722,-0.5471 z"
       id="rect4779-9-47"
       inkscape:connector-curvature="0"
       sodipodi:nodetypes="ccccccccccc"
       inkscape:export-xdpi="92.213333"
       inkscape:export-ydpi="92.213333" />
    <path
       style="fill:#ececec;fill-opacity:1;fill-rule:evenodd;stroke:#000000;stroke-width:1px;stroke-linecap:butt;stroke-linejoin:miter;stroke-opacity:1"
       d="m 87.230398,1073.6993 0.426818,-5.0968 6.794061,-1.8548 4.347434,5.3796 1.542769,5.6805 7.06142,2.0467 2.56625,-2.135 4.58991,1.667 -2.85986,6.3774 -5.63346,-1.9078 -10.457689,-1.4549 z"
       id="path4711-7-8-8-2-7"
       inkscape:connector-curvature="0"
       sodipodi:nodetypes="cccccccccccc"
       inkscape:transform-center-x="-8.604965"
       inkscape:transform-center-y="5.92357"
       inkscape:export-xdpi="92.213333"
       inkscape:export-ydpi="92.213333" />
    <path
       style="opacity:1;fill:#e6e6e6;fill-opacity:1;stroke:#000000;stroke-width:1;stroke-linecap:round;stroke-linejoin:round;stroke-miterlimit:4;stroke-dasharray:none;stroke-dashoffset:0;stroke-opacity:1"
       d="m 89.35325,1105.688 13.18387,2.4921 1.40529,3.5934 -14.83916,0 z"
       id="rect4761-2-0"
       inkscape:connector-curvature="0"
       sodipodi:nodetypes="ccccc"
       inkscape:transform-center-x="-4.1735261"
       inkscape:transform-center-y="1.5074373"
       inkscape:export-xdpi="92.213333"
       inkscape:export-ydpi="92.213333" />
    <path
       style="opacity:1;fill:#e6e6e6;fill-opacity:1;stroke:#000000;stroke-width:1;stroke-linecap:round;stroke-linejoin:round;stroke-miterlimit:4;stroke-dasharray:none;stroke-dashoffset:0;stroke-opacity:1"
       d="m 84.857365,1105.7858 c 5.532269,0.7855 7.540182,1.571 11.310235,2.3565 l 1.40894,3.5918 -14.840471,0.012 z"
       id="rect4761-9-3-7"
       inkscape:connector-curvature="0"
       sodipodi:nodetypes="ccccc"
       inkscape:transform-center-x="-4.3345294"
       inkscape:transform-center-y="1.1736725"
       inkscape:export-xdpi="92.213333"
       inkscape:export-ydpi="92.213333" />
    <path
       style="fill:#ececec;fill-opacity:1;fill-rule:evenodd;stroke:#000000;stroke-width:1px;stroke-linecap:butt;stroke-linejoin:miter;stroke-opacity:1"
       d="m 96.813789,1083.7216 -9.132197,1.9657 3.613774,10.6609 -3.759967,10.9174 12.058296,-0.5454 1.950285,-9.3722 z"
       id="path4711-7-6-4"
       inkscape:connector-curvature="0"
       sodipodi:nodetypes="ccccccc"
       inkscape:transform-center-x="-0.32018365"
       inkscape:transform-center-y="9.7525762"
       inkscape:export-xdpi="92.213333"
       inkscape:export-ydpi="92.213333" />
    <path
       style="fill:#e6e6e6;fill-rule:evenodd;stroke:#000000;stroke-width:1px;stroke-linecap:butt;stroke-linejoin:miter;stroke-opacity:1"
       d="m 94.3581,1054.8937 c 2.76056,-1.8643 10.30386,0.832 10.30386,0.832 0,0 1.6621,2.1292 2.23202,3.3156 0.5694,1.1853 1.15447,3.733 1.15447,3.733 l -1.68638,0.2115 c 0,0 1.22489,4.3079 0.29809,5.2248 -1.73878,1.7202 -7.74025,-0.1386 -7.74025,-0.1386 l -6.56002,-4.1155 c 0,0 -0.73505,-7.217 1.99821,-9.0628 z"
       id="path4728-1-0"
       inkscape:connector-curvature="0"
       sodipodi:nodetypes="acsccscca"
       inkscape:export-xdpi="92.213333"
       inkscape:export-ydpi="92.213333" />
    <path
       style="fill:#ececec;fill-opacity:1;fill-rule:evenodd;stroke:#000000;stroke-width:1px;stroke-linecap:butt;stroke-linejoin:miter;stroke-opacity:1"
       d="m 92.007341,1082.8172 -8.950922,3.6047 3.570195,10.2327 -3.535458,10.5369 10.060769,-0.099 3.527746,-11.2157 z"
       id="path4711-9-27"
       inkscape:connector-curvature="0"
       sodipodi:nodetypes="ccccccc"
       inkscape:transform-center-x="-1.2997142"
       inkscape:transform-center-y="9.0695459"
       inkscape:export-xdpi="92.213333"
       inkscape:export-ydpi="92.213333" />
    <path
       style="opacity:1;fill:#e6e6e6;fill-opacity:1;stroke:#000000;stroke-width:1;stroke-linecap:round;stroke-linejoin:round;stroke-miterlimit:4;stroke-dasharray:none;stroke-dashoffset:0;stroke-opacity:1"
       d="m 91.88256,1063.6986 9.3762,4.16 2.15192,5.8586 -3.99642,10.1572 3.73804,5.8384 -23.10528,0.6095 3.76585,-8.8746 0.19214,-11.8557 3.17023,-3.5014 z"
       id="rect4703-0-77"
       inkscape:connector-curvature="0"
       sodipodi:nodetypes="cccccccccc"
       inkscape:export-xdpi="92.213333"
       inkscape:export-ydpi="92.213333" />
    <path
       style="fill:#ececec;fill-opacity:1;fill-rule:evenodd;stroke:#000000;stroke-width:1px;stroke-linecap:butt;stroke-linejoin:miter;stroke-opacity:1"
       d="m 87.731913,1068.5893 4.989471,-2.6416 5.422942,3.9104 -2.659172,6.3092 -4.464299,4.4253 1.926375,6.3685 3.544412,1.3129 -0.50703,4.1418 -7.045384,1.1206 -0.453686,-5.2367 -4.324172,-8.5178 z"
       id="path4711-7-8-7-2"
       inkscape:connector-curvature="0"
       sodipodi:nodetypes="cccccccccccc"
       inkscape:transform-center-x="1.5788404"
       inkscape:transform-center-y="8.6737314"
       inkscape:export-xdpi="92.213333"
       inkscape:export-ydpi="92.213333" />
    <path
       style="opacity:1;fill:#f2f2f2;fill-opacity:1;stroke:#000000;stroke-width:1;stroke-linecap:round;stroke-linejoin:round;stroke-miterlimit:4;stroke-dasharray:none;stroke-dashoffset:0;stroke-opacity:1"
       d="m 172.47999,1053.438 1.1839,0.318 -6.01003,19.938 3.30752,2.9037 -4.43916,-1.2368 -4.32869,9.825 -1.85694,-0.4374 3.63543,-10.1126 -4.21373,-1.2778 4.55765,-0.8681 z"
       id="rect4779-9-47-2"
       inkscape:connector-curvature="0"
       sodipodi:nodetypes="ccccccccccc"
       inkscape:export-xdpi="91.007935"
       inkscape:export-ydpi="91.007935" />
    <path
       style="fill:#ececec;fill-opacity:1;fill-rule:evenodd;stroke:#000000;stroke-width:1px;stroke-linecap:butt;stroke-linejoin:miter;stroke-opacity:1"
       d="m 139.02467,1074.2571 -0.16018,-5.1121 6.53669,-2.6213 4.93538,4.8458 2.1837,5.4663 7.24947,1.2238 2.30462,-2.4151 4.75073,1.1299 -2.11004,6.6632 -5.815,-1.2495 -10.55553,-0.2467 z"
       id="path4711-7-8-8-2-7-7"
       inkscape:connector-curvature="0"
       sodipodi:nodetypes="cccccccccccc"
       inkscape:transform-center-x="-9.180021"
       inkscape:transform-center-y="4.64832"
       inkscape:export-xdpi="91.007935"
       inkscape:export-ydpi="91.007935" />
    <path
       style="opacity:1;fill:#e6e6e6;fill-opacity:1;stroke:#000000;stroke-width:1;stroke-linecap:round;stroke-linejoin:round;stroke-miterlimit:4;stroke-dasharray:none;stroke-dashoffset:0;stroke-opacity:1"
       d="m 136.23237,1105.7859 c 5.53226,0.7855 7.54018,1.571 11.31023,2.3565 l 1.40894,3.5918 -14.84047,0.012 z"
       id="rect4761-9-3-7-8"
       inkscape:connector-curvature="0"
       sodipodi:nodetypes="ccccc"
       inkscape:transform-center-x="-4.3345294"
       inkscape:transform-center-y="1.1736725"
       inkscape:export-xdpi="91.007935"
       inkscape:export-ydpi="91.007935" />
    <path
       style="fill:#ececec;fill-opacity:1;fill-rule:evenodd;stroke:#000000;stroke-width:1px;stroke-linecap:butt;stroke-linejoin:miter;stroke-opacity:1"
       d="m 143.38234,1082.8173 -8.95092,3.6047 3.57019,10.2327 -3.53545,10.5369 10.06077,-0.099 3.52774,-11.2157 z"
       id="path4711-9-27-6"
       inkscape:connector-curvature="0"
       sodipodi:nodetypes="ccccccc"
       inkscape:transform-center-x="-1.2997142"
       inkscape:transform-center-y="9.0695459"
       inkscape:export-xdpi="91.007935"
       inkscape:export-ydpi="91.007935" />
    <path
       style="opacity:1;fill:#e6e6e6;fill-opacity:1;stroke:#000000;stroke-width:1;stroke-linecap:round;stroke-linejoin:round;stroke-miterlimit:4;stroke-dasharray:none;stroke-dashoffset:0;stroke-opacity:1"
       d="m 140.72825,1105.6881 13.18387,2.4921 1.40529,3.5934 -14.83916,0 z"
       id="rect4761-2-0-7"
       inkscape:connector-curvature="0"
       sodipodi:nodetypes="ccccc"
       inkscape:transform-center-x="-4.1735261"
       inkscape:transform-center-y="1.5074373"
       inkscape:export-xdpi="91.007935"
       inkscape:export-ydpi="91.007935" />
    <path
       style="fill:#ececec;fill-opacity:1;fill-rule:evenodd;stroke:#000000;stroke-width:1px;stroke-linecap:butt;stroke-linejoin:miter;stroke-opacity:1"
       d="m 148.18879,1083.7217 -9.1322,1.9657 3.61378,10.6609 -3.75997,10.9174 12.0583,-0.5454 1.95028,-9.3722 z"
       id="path4711-7-6-4-2"
       inkscape:connector-curvature="0"
       sodipodi:nodetypes="ccccccc"
       inkscape:transform-center-x="-0.32018365"
       inkscape:transform-center-y="9.7525762"
       inkscape:export-xdpi="91.007935"
       inkscape:export-ydpi="91.007935" />
    <path
       style="fill:#e6e6e6;fill-rule:evenodd;stroke:#000000;stroke-width:1px;stroke-linecap:butt;stroke-linejoin:miter;stroke-opacity:1"
       d="m 145.7331,1054.8937 c 2.76056,-1.8643 10.30386,0.832 10.30386,0.832 0,0 1.6621,2.1292 2.23202,3.3156 0.5694,1.1853 1.15447,3.733 1.15447,3.733 l -1.68638,0.2115 c 0,0 1.22489,4.308 0.29809,5.2249 -1.73878,1.7202 -7.74025,-0.1386 -7.74025,-0.1386 l -6.56002,-4.1156 c 0,0 -0.73505,-7.217 1.99821,-9.0628 z"
       id="path4728-1-0-4"
       inkscape:connector-curvature="0"
       sodipodi:nodetypes="acsccscca"
       inkscape:export-xdpi="91.007935"
       inkscape:export-ydpi="91.007935" />
    <path
       style="opacity:1;fill:#e6e6e6;fill-opacity:1;stroke:#000000;stroke-width:1;stroke-linecap:round;stroke-linejoin:round;stroke-miterlimit:4;stroke-dasharray:none;stroke-dashoffset:0;stroke-opacity:1"
       d="m 143.25756,1063.6986 9.3762,4.1601 2.15192,5.8586 -3.99642,10.1572 3.73804,5.8384 -23.10528,0.6095 3.76585,-8.8746 0.19214,-11.8557 3.17023,-3.5014 z"
       id="rect4703-0-77-3"
       inkscape:connector-curvature="0"
       sodipodi:nodetypes="cccccccccc"
       inkscape:export-xdpi="91.007935"
       inkscape:export-ydpi="91.007935" />
    <path
       style="fill:#ececec;fill-opacity:1;fill-rule:evenodd;stroke:#000000;stroke-width:1px;stroke-linecap:butt;stroke-linejoin:miter;stroke-opacity:1"
       d="m 139.10691,1068.5894 4.98947,-2.6416 5.42295,3.9104 -2.65918,6.3092 -4.46429,4.4253 1.92637,6.3685 3.54441,1.3129 -0.50703,4.1418 -7.04538,1.1206 -0.45369,-5.2367 -4.32417,-8.5178 z"
       id="path4711-7-8-7-2-9"
       inkscape:connector-curvature="0"
       sodipodi:nodetypes="cccccccccccc"
       inkscape:transform-center-x="1.5788404"
       inkscape:transform-center-y="8.6737314"
       inkscape:export-xdpi="91.007935"
       inkscape:export-ydpi="91.007935" />
  </g>
</svg>
